<?xml version="1.0" encoding="UTF-8"?>
<svg xmlns="http://www.w3.org/2000/svg" xmlns:xlink="http://www.w3.org/1999/xlink" width="79.027pt" height="129.666pt" viewBox="0 0 79.027 129.666">
<path fill-rule="nonzero" fill="rgb(100%, 100%, 100%)" fill-opacity="1" stroke-width="2.1918" stroke-linecap="round" stroke-linejoin="round" stroke="rgb(6.27594%, 6.27594%, 9.411621%)" stroke-opacity="1" stroke-miterlimit="10" d="M 24.94076 3.116575 L 74.824819 3.116575 L 68.588817 53.000633 L 31.176762 53.000633 Z M 24.94076 3.116575 " transform="matrix(0.987838, 0, 0, -0.987838, -10.242887, 114.8482)"/>
<path fill-rule="nonzero" fill="rgb(100%, 100%, 100%)" fill-opacity="1" stroke-width="1.39478" stroke-linecap="round" stroke-linejoin="round" stroke="rgb(6.27594%, 6.27594%, 9.411621%)" stroke-opacity="1" stroke-miterlimit="10" d="M 28.060738 3.116575 L 32.734774 -9.351474 L 37.412764 3.116575 Z M 28.060738 3.116575 " transform="matrix(0.987838, 0, 0, -0.987838, -10.242887, 114.8482)"/>
<path fill-rule="nonzero" fill="rgb(100%, 100%, 100%)" fill-opacity="1" stroke-width="1.39478" stroke-linecap="round" stroke-linejoin="round" stroke="rgb(6.27594%, 6.27594%, 9.411621%)" stroke-opacity="1" stroke-miterlimit="10" d="M 38.970775 3.116575 L 43.648765 -9.351474 L 48.322801 3.116575 Z M 38.970775 3.116575 " transform="matrix(0.987838, 0, 0, -0.987838, -10.242887, 114.8482)"/>
<path fill-rule="nonzero" fill="rgb(100%, 100%, 100%)" fill-opacity="1" stroke-width="1.39478" stroke-linecap="round" stroke-linejoin="round" stroke="rgb(6.27594%, 6.27594%, 9.411621%)" stroke-opacity="1" stroke-miterlimit="10" d="M 49.884767 3.116575 L 54.558802 -9.351474 L 59.236792 3.116575 Z M 49.884767 3.116575 " transform="matrix(0.987838, 0, 0, -0.987838, -10.242887, 114.8482)"/>
<path fill-rule="nonzero" fill="rgb(100%, 100%, 100%)" fill-opacity="1" stroke-width="1.39478" stroke-linecap="round" stroke-linejoin="round" stroke="rgb(6.27594%, 6.27594%, 9.411621%)" stroke-opacity="1" stroke-miterlimit="10" d="M 60.794804 3.116575 L 65.472794 -9.351474 L 70.146829 3.116575 Z M 60.794804 3.116575 " transform="matrix(0.987838, 0, 0, -0.987838, -10.242887, 114.8482)"/>
<path fill-rule="nonzero" fill="rgb(100%, 100%, 100%)" fill-opacity="1" stroke-width="1.39478" stroke-linecap="round" stroke-linejoin="round" stroke="rgb(6.27594%, 6.27594%, 9.411621%)" stroke-opacity="1" stroke-miterlimit="10" d="M 71.708795 3.116575 L 76.382831 -9.351474 L 81.060821 3.116575 Z M 71.708795 3.116575 " transform="matrix(0.987838, 0, 0, -0.987838, -10.242887, 114.8482)"/>
<path fill="none" stroke-width="1.79329" stroke-linecap="round" stroke-linejoin="round" stroke="rgb(36.471558%, 50.193787%, 58.428955%)" stroke-opacity="1" stroke-miterlimit="10" d="M 31.176762 9.352576 L 32.734774 46.764632 " transform="matrix(0.987838, 0, 0, -0.987838, -10.242887, 114.8482)"/>
<path fill="none" stroke-width="1.79329" stroke-linecap="round" stroke-linejoin="round" stroke="rgb(36.471558%, 50.193787%, 58.428955%)" stroke-opacity="1" stroke-miterlimit="10" d="M 40.528787 9.352576 L 42.090753 46.764632 " transform="matrix(0.987838, 0, 0, -0.987838, -10.242887, 114.8482)"/>
<path fill="none" stroke-width="1.79329" stroke-linecap="round" stroke-linejoin="round" stroke="rgb(36.471558%, 50.193787%, 58.428955%)" stroke-opacity="1" stroke-miterlimit="10" d="M 49.884767 9.352576 L 51.442779 46.764632 " transform="matrix(0.987838, 0, 0, -0.987838, -10.242887, 114.8482)"/>
<path fill="none" stroke-width="1.79329" stroke-linecap="round" stroke-linejoin="round" stroke="rgb(36.471558%, 50.193787%, 58.428955%)" stroke-opacity="1" stroke-miterlimit="10" d="M 59.236792 9.352576 L 60.794804 46.764632 " transform="matrix(0.987838, 0, 0, -0.987838, -10.242887, 114.8482)"/>
<path fill="none" stroke-width="1.79329" stroke-linecap="round" stroke-linejoin="round" stroke="rgb(36.471558%, 50.193787%, 58.428955%)" stroke-opacity="1" stroke-miterlimit="10" d="M 68.588817 9.352576 L 70.146829 46.764632 " transform="matrix(0.987838, 0, 0, -0.987838, -10.242887, 114.8482)"/>
<path fill-rule="nonzero" fill="rgb(66.273499%, 77.645874%, 83.921814%)" fill-opacity="1" stroke-width="2.1918" stroke-linecap="round" stroke-linejoin="round" stroke="rgb(6.27594%, 6.27594%, 9.411621%)" stroke-opacity="1" stroke-miterlimit="10" d="M 70.146829 68.58866 C 70.146829 79.78341 61.075562 88.854677 49.884767 88.854677 C 38.690017 88.854677 29.61875 79.78341 29.61875 68.58866 C 29.61875 57.397864 38.690017 48.322643 49.884767 48.322643 C 61.075562 48.322643 70.146829 57.397864 70.146829 68.58866 Z M 70.146829 68.58866 " transform="matrix(0.987838, 0, 0, -0.987838, -10.242887, 114.8482)"/>
<path fill-rule="nonzero" fill="rgb(36.471558%, 50.193787%, 58.428955%)" fill-opacity="1" stroke-width="1.39478" stroke-linecap="round" stroke-linejoin="round" stroke="rgb(6.27594%, 6.27594%, 9.411621%)" stroke-opacity="1" stroke-miterlimit="10" d="M 45.51917 71.708638 C 45.51917 74.460862 43.284965 76.695067 40.528787 76.695067 C 37.776563 76.695067 35.542358 74.460862 35.542358 71.708638 C 35.542358 68.95246 37.776563 66.718255 40.528787 66.718255 C 43.284965 66.718255 45.51917 68.95246 45.51917 71.708638 Z M 45.51917 71.708638 " transform="matrix(0.987838, 0, 0, -0.987838, -10.242887, 114.8482)"/>
<path fill-rule="nonzero" fill="rgb(36.471558%, 50.193787%, 58.428955%)" fill-opacity="1" stroke-width="1.39478" stroke-linecap="round" stroke-linejoin="round" stroke="rgb(6.27594%, 6.27594%, 9.411621%)" stroke-opacity="1" stroke-miterlimit="10" d="M 64.223221 71.708638 C 64.223221 74.460862 61.99297 76.695067 59.236792 76.695067 C 56.480614 76.695067 54.246409 74.460862 54.246409 71.708638 C 54.246409 68.95246 56.480614 66.718255 59.236792 66.718255 C 61.99297 66.718255 64.223221 68.95246 64.223221 71.708638 Z M 64.223221 71.708638 " transform="matrix(0.987838, 0, 0, -0.987838, -10.242887, 114.8482)"/>
<path fill="none" stroke-width="2.39105" stroke-linecap="round" stroke-linejoin="round" stroke="rgb(6.27594%, 6.27594%, 9.411621%)" stroke-opacity="1" stroke-miterlimit="10" d="M 37.412764 59.236635 L 62.352816 59.236635 " transform="matrix(0.987838, 0, 0, -0.987838, -10.242887, 114.8482)"/>
<path fill="none" stroke-width="1.79329" stroke-linecap="round" stroke-linejoin="round" stroke="rgb(6.27594%, 6.27594%, 9.411621%)" stroke-opacity="1" stroke-miterlimit="10" d="M 30.306806 73.836075 L 15.252616 77.869507 " transform="matrix(0.987838, 0, 0, -0.987838, -10.242887, 114.8482)"/>
<path fill="none" stroke-width="1.79329" stroke-linecap="round" stroke-linejoin="round" stroke="rgb(6.27594%, 6.27594%, 9.411621%)" stroke-opacity="1" stroke-miterlimit="10" d="M 35.554222 82.919205 L 24.529508 93.943918 " transform="matrix(0.987838, 0, 0, -0.987838, -10.242887, 114.8482)"/>
<path fill="none" stroke-width="1.79329" stroke-linecap="round" stroke-linejoin="round" stroke="rgb(6.27594%, 6.27594%, 9.411621%)" stroke-opacity="1" stroke-miterlimit="10" d="M 44.637351 88.162666 L 38.587204 110.749883 " transform="matrix(0.987838, 0, 0, -0.987838, -10.242887, 114.8482)"/>
<path fill="none" stroke-width="1.79329" stroke-linecap="round" stroke-linejoin="round" stroke="rgb(6.27594%, 6.27594%, 9.411621%)" stroke-opacity="1" stroke-miterlimit="10" d="M 55.128228 88.162666 L 61.178375 110.749883 " transform="matrix(0.987838, 0, 0, -0.987838, -10.242887, 114.8482)"/>
<path fill="none" stroke-width="1.79329" stroke-linecap="round" stroke-linejoin="round" stroke="rgb(6.27594%, 6.27594%, 9.411621%)" stroke-opacity="1" stroke-miterlimit="10" d="M 64.211358 82.919205 L 75.236071 93.943918 " transform="matrix(0.987838, 0, 0, -0.987838, -10.242887, 114.8482)"/>
<path fill="none" stroke-width="1.79329" stroke-linecap="round" stroke-linejoin="round" stroke="rgb(6.27594%, 6.27594%, 9.411621%)" stroke-opacity="1" stroke-miterlimit="10" d="M 69.458773 73.836075 L 84.516918 77.869507 " transform="matrix(0.987838, 0, 0, -0.987838, -10.242887, 114.8482)"/>
</svg>
