<?xml version="1.0" encoding="UTF-8"?>
<svg xmlns="http://www.w3.org/2000/svg" xmlns:xlink="http://www.w3.org/1999/xlink" width="103.294pt" height="101.635pt" viewBox="0 0 103.294 101.635">
<path fill-rule="nonzero" fill="rgb(28.625488%, 16.07666%, 9.020996%)" fill-opacity="1" stroke-width="1.59404" stroke-linecap="round" stroke-linejoin="round" stroke="rgb(6.27594%, 6.27594%, 9.411621%)" stroke-opacity="1" stroke-miterlimit="10" d="M 14.028217 18.704709 L 29.618426 18.704709 L 26.499598 40.528641 L 17.147046 40.528641 Z M 14.028217 18.704709 " transform="matrix(0.993212, 0, 0, -0.993212, -1.245487, 99.25742)"/>
<path fill-rule="nonzero" fill="rgb(28.625488%, 16.07666%, 9.020996%)" fill-opacity="1" stroke-width="1.59404" stroke-linecap="round" stroke-linejoin="round" stroke="rgb(6.27594%, 6.27594%, 9.411621%)" stroke-opacity="1" stroke-miterlimit="10" d="M 29.618426 48.323745 C 29.618426 52.630324 26.1299 56.118849 21.823322 56.118849 C 17.520676 56.118849 14.028217 52.630324 14.028217 48.323745 C 14.028217 44.021099 17.520676 40.528641 21.823322 40.528641 C 26.1299 40.528641 29.618426 44.021099 29.618426 48.323745 Z M 29.618426 48.323745 " transform="matrix(0.993212, 0, 0, -0.993212, -1.245487, 99.25742)"/>
<path fill-rule="nonzero" fill="rgb(87.841797%, 56.861877%, 22.744751%)" fill-opacity="1" d="M 19.035156 49.710938 C 19.035156 48.773438 18.273438 48.007812 17.332031 48.007812 C 16.394531 48.007812 15.628906 48.773438 15.628906 49.710938 C 15.628906 50.652344 16.394531 51.414062 17.332031 51.414062 C 18.273438 51.414062 19.035156 50.652344 19.035156 49.710938 Z M 19.035156 49.710938 "/>
<path fill-rule="nonzero" fill="rgb(87.841797%, 56.861877%, 22.744751%)" fill-opacity="1" d="M 25.230469 49.710938 C 25.230469 48.773438 24.46875 48.007812 23.527344 48.007812 C 22.585938 48.007812 21.824219 48.773438 21.824219 49.710938 C 21.824219 50.652344 22.585938 51.414062 23.527344 51.414062 C 24.46875 51.414062 25.230469 50.652344 25.230469 49.710938 Z M 25.230469 49.710938 "/>
<path fill-rule="nonzero" fill="rgb(28.625488%, 16.07666%, 9.020996%)" fill-opacity="1" stroke-width="1.59404" stroke-linecap="round" stroke-linejoin="round" stroke="rgb(6.27594%, 6.27594%, 9.411621%)" stroke-opacity="1" stroke-miterlimit="10" d="M 37.41353 18.704709 L 52.999806 18.704709 L 49.88491 46.766297 L 40.528425 46.766297 Z M 37.41353 18.704709 " transform="matrix(0.993212, 0, 0, -0.993212, -1.245487, 99.25742)"/>
<path fill-rule="nonzero" fill="rgb(28.625488%, 16.07666%, 9.020996%)" fill-opacity="1" stroke-width="1.59404" stroke-linecap="round" stroke-linejoin="round" stroke="rgb(6.27594%, 6.27594%, 9.411621%)" stroke-opacity="1" stroke-miterlimit="10" d="M 52.999806 54.561402 C 52.999806 58.864048 49.51128 62.352573 45.208634 62.352573 C 40.902056 62.352573 37.41353 58.864048 37.41353 54.561402 C 37.41353 50.254823 40.902056 46.766297 45.208634 46.766297 C 49.51128 46.766297 52.999806 50.254823 52.999806 54.561402 Z M 52.999806 54.561402 " transform="matrix(0.993212, 0, 0, -0.993212, -1.245487, 99.25742)"/>
<path fill-rule="nonzero" fill="rgb(87.841797%, 56.861877%, 22.744751%)" fill-opacity="1" d="M 42.261719 43.519531 C 42.261719 42.578125 41.5 41.816406 40.558594 41.816406 C 39.617188 41.816406 38.855469 42.578125 38.855469 43.519531 C 38.855469 44.460938 39.617188 45.222656 40.558594 45.222656 C 41.5 45.222656 42.261719 44.460938 42.261719 43.519531 Z M 42.261719 43.519531 "/>
<path fill-rule="nonzero" fill="rgb(87.841797%, 56.861877%, 22.744751%)" fill-opacity="1" d="M 48.453125 43.519531 C 48.453125 42.578125 47.691406 41.816406 46.75 41.816406 C 45.808594 41.816406 45.046875 42.578125 45.046875 43.519531 C 45.046875 44.460938 45.808594 45.222656 46.75 45.222656 C 47.691406 45.222656 48.453125 44.460938 48.453125 43.519531 Z M 48.453125 43.519531 "/>
<path fill-rule="nonzero" fill="rgb(28.625488%, 16.07666%, 9.020996%)" fill-opacity="1" stroke-width="1.59404" stroke-linecap="round" stroke-linejoin="round" stroke="rgb(6.27594%, 6.27594%, 9.411621%)" stroke-opacity="1" stroke-miterlimit="10" d="M 60.79491 18.704709 L 76.385118 18.704709 L 73.26629 46.766297 L 63.913738 46.766297 Z M 60.79491 18.704709 " transform="matrix(0.993212, 0, 0, -0.993212, -1.245487, 99.25742)"/>
<path fill-rule="nonzero" fill="rgb(28.625488%, 16.07666%, 9.020996%)" fill-opacity="1" stroke-width="1.59404" stroke-linecap="round" stroke-linejoin="round" stroke="rgb(6.27594%, 6.27594%, 9.411621%)" stroke-opacity="1" stroke-miterlimit="10" d="M 76.385118 54.561402 C 76.385118 58.864048 72.89266 62.352573 68.590014 62.352573 C 64.283435 62.352573 60.79491 58.864048 60.79491 54.561402 C 60.79491 50.254823 64.283435 46.766297 68.590014 46.766297 C 72.89266 46.766297 76.385118 50.254823 76.385118 54.561402 Z M 76.385118 54.561402 " transform="matrix(0.993212, 0, 0, -0.993212, -1.245487, 99.25742)"/>
<path fill-rule="nonzero" fill="rgb(87.841797%, 56.861877%, 22.744751%)" fill-opacity="1" d="M 65.484375 43.519531 C 65.484375 42.578125 64.722656 41.816406 63.78125 41.816406 C 62.839844 41.816406 62.078125 42.578125 62.078125 43.519531 C 62.078125 44.460938 62.839844 45.222656 63.78125 45.222656 C 64.722656 45.222656 65.484375 44.460938 65.484375 43.519531 Z M 65.484375 43.519531 "/>
<path fill-rule="nonzero" fill="rgb(87.841797%, 56.861877%, 22.744751%)" fill-opacity="1" d="M 71.679688 43.519531 C 71.679688 42.578125 70.914062 41.816406 69.976562 41.816406 C 69.035156 41.816406 68.273438 42.578125 68.273438 43.519531 C 68.273438 44.460938 69.035156 45.222656 69.976562 45.222656 C 70.914062 45.222656 71.679688 44.460938 71.679688 43.519531 Z M 71.679688 43.519531 "/>
<path fill-rule="nonzero" fill="rgb(28.625488%, 16.07666%, 9.020996%)" fill-opacity="1" stroke-width="1.59404" stroke-linecap="round" stroke-linejoin="round" stroke="rgb(6.27594%, 6.27594%, 9.411621%)" stroke-opacity="1" stroke-miterlimit="10" d="M 84.17629 18.704709 L 99.766498 18.704709 L 96.64767 40.528641 L 87.295118 40.528641 Z M 84.17629 18.704709 " transform="matrix(0.993212, 0, 0, -0.993212, -1.245487, 99.25742)"/>
<path fill-rule="nonzero" fill="rgb(28.625488%, 16.07666%, 9.020996%)" fill-opacity="1" stroke-width="1.59404" stroke-linecap="round" stroke-linejoin="round" stroke="rgb(6.27594%, 6.27594%, 9.411621%)" stroke-opacity="1" stroke-miterlimit="10" d="M 99.766498 48.323745 C 99.766498 52.630324 96.277973 56.118849 91.971394 56.118849 C 87.668748 56.118849 84.17629 52.630324 84.17629 48.323745 C 84.17629 44.021099 87.668748 40.528641 91.971394 40.528641 C 96.277973 40.528641 99.766498 44.021099 99.766498 48.323745 Z M 99.766498 48.323745 " transform="matrix(0.993212, 0, 0, -0.993212, -1.245487, 99.25742)"/>
<path fill-rule="nonzero" fill="rgb(87.841797%, 56.861877%, 22.744751%)" fill-opacity="1" d="M 88.710938 49.710938 C 88.710938 48.773438 87.945312 48.007812 87.007812 48.007812 C 86.066406 48.007812 85.304688 48.773438 85.304688 49.710938 C 85.304688 50.652344 86.066406 51.414062 87.007812 51.414062 C 87.945312 51.414062 88.710938 50.652344 88.710938 49.710938 Z M 88.710938 49.710938 "/>
<path fill-rule="nonzero" fill="rgb(87.841797%, 56.861877%, 22.744751%)" fill-opacity="1" d="M 94.902344 49.710938 C 94.902344 48.773438 94.140625 48.007812 93.199219 48.007812 C 92.257812 48.007812 91.496094 48.773438 91.496094 49.710938 C 91.496094 50.652344 92.257812 51.414062 93.199219 51.414062 C 94.140625 51.414062 94.902344 50.652344 94.902344 49.710938 Z M 94.902344 49.710938 "/>
<path fill-rule="nonzero" fill="rgb(28.625488%, 16.07666%, 9.020996%)" fill-opacity="1" stroke-width="1.99255" stroke-linecap="round" stroke-linejoin="round" stroke="rgb(6.27594%, 6.27594%, 9.411621%)" stroke-opacity="1" stroke-miterlimit="10" d="M 6.237046 3.118433 L 6.237046 18.704709 L 93.532775 18.704709 L 93.532775 3.118433 Z M 6.237046 3.118433 " transform="matrix(0.993212, 0, 0, -0.993212, -1.245487, 99.25742)"/>
<path fill="none" stroke-width="1.79329" stroke-linecap="round" stroke-linejoin="round" stroke="rgb(87.841797%, 56.861877%, 22.744751%)" stroke-opacity="1" stroke-miterlimit="10" d="M 6.237046 10.913537 L 93.532775 10.913537 " transform="matrix(0.993212, 0, 0, -0.993212, -1.245487, 99.25742)"/>
<path fill-rule="nonzero" fill="rgb(47.840881%, 27.059937%, 14.901733%)" fill-opacity="1" stroke-width="1.99255" stroke-linecap="round" stroke-linejoin="round" stroke="rgb(6.27594%, 6.27594%, 9.411621%)" stroke-opacity="1" stroke-miterlimit="10" d="M 34.294702 18.704709 L 65.471186 18.704709 L 60.79491 62.352573 L 38.970978 62.352573 Z M 34.294702 18.704709 " transform="matrix(0.993212, 0, 0, -0.993212, -1.245487, 99.25742)"/>
<path fill-rule="nonzero" fill="rgb(47.840881%, 27.059937%, 14.901733%)" fill-opacity="1" stroke-width="1.99255" stroke-linecap="round" stroke-linejoin="round" stroke="rgb(6.27594%, 6.27594%, 9.411621%)" stroke-opacity="1" stroke-miterlimit="10" d="M 62.352358 73.266506 C 62.352358 80.153099 56.771503 85.737886 49.88491 85.737886 C 42.994384 85.737886 37.41353 80.153099 37.41353 73.266506 C 37.41353 66.379912 42.994384 60.795125 49.88491 60.795125 C 56.771503 60.795125 62.352358 66.379912 62.352358 73.266506 Z M 62.352358 73.266506 " transform="matrix(0.993212, 0, 0, -0.993212, -1.245487, 99.25742)"/>
<path fill-rule="nonzero" fill="rgb(6.27594%, 6.27594%, 9.411621%)" fill-opacity="1" d="M 46.285156 24.941406 C 46.285156 23.488281 45.109375 22.308594 43.65625 22.308594 C 42.199219 22.308594 41.023438 23.488281 41.023438 24.941406 C 41.023438 26.394531 42.199219 27.574219 43.65625 27.574219 C 45.109375 27.574219 46.285156 26.394531 46.285156 24.941406 Z M 46.285156 24.941406 "/>
<path fill-rule="nonzero" fill="rgb(6.27594%, 6.27594%, 9.411621%)" fill-opacity="1" d="M 55.574219 24.941406 C 55.574219 23.488281 54.398438 22.308594 52.945312 22.308594 C 51.492188 22.308594 50.3125 23.488281 50.3125 24.941406 C 50.3125 26.394531 51.492188 27.574219 52.945312 27.574219 C 54.398438 27.574219 55.574219 26.394531 55.574219 24.941406 Z M 55.574219 24.941406 "/>
<path fill-rule="nonzero" fill="rgb(87.841797%, 56.861877%, 22.744751%)" fill-opacity="1" stroke-width="1.39478" stroke-linecap="round" stroke-linejoin="round" stroke="rgb(6.27594%, 6.27594%, 9.411621%)" stroke-opacity="1" stroke-miterlimit="10" d="M 38.970978 85.737886 L 43.647254 95.090438 L 49.88491 85.737886 L 56.118634 95.090438 L 60.79491 85.737886 Z M 38.970978 85.737886 " transform="matrix(0.993212, 0, 0, -0.993212, -1.245487, 99.25742)"/>
</svg>
